<svg width="38" height="51" viewBox="0 0 38 51" fill="none" xmlns="http://www.w3.org/2000/svg">
<path d="M19 51C19 51 38 32.8749 38 19.125C38 8.56255 29.4934 0 19 0C8.50659 0 0 8.56255 0 19.125C0 32.8749 19 51 19 51ZM19 28.6875C13.7533 28.6875 9.5 24.4062 9.5 19.125C9.5 13.8438 13.7533 9.5625 19 9.5625C24.2467 9.5625 28.5 13.8438 28.5 19.125C28.5 24.4062 24.2467 28.6875 19 28.6875Z" fill="#E73A1E"/>
<rect x="8" y="7" width="23" height="23" rx="11.5" fill="white"/>
<g clip-path="url(#clip0_13_263)">
<path d="M19.5 20.7269C20.5288 20.7269 21.3628 19.8875 21.3628 18.8519C21.3628 17.8164 20.5288 16.9769 19.5 16.9769C18.4713 16.9769 17.6373 17.8164 17.6373 18.8519C17.6373 19.8875 18.4713 20.7269 19.5 20.7269Z" fill="#E73A1E"/>
<path d="M19.5 20.7269C20.5288 20.7269 21.3628 19.8875 21.3628 18.8519C21.3628 17.8164 20.5288 16.9769 19.5 16.9769C18.4713 16.9769 17.6373 17.8164 17.6373 18.8519C17.6373 19.8875 18.4713 20.7269 19.5 20.7269Z" fill="#E73A1E"/>
<path d="M26.2059 20.7269C27.2346 20.7269 28.0686 19.8875 28.0686 18.8519C28.0686 17.8164 27.2346 16.9769 26.2059 16.9769C25.1771 16.9769 24.3431 17.8164 24.3431 18.8519C24.3431 19.8875 25.1771 20.7269 26.2059 20.7269Z" fill="#E73A1E"/>
<path d="M26.2059 20.7269C27.2346 20.7269 28.0686 19.8875 28.0686 18.8519C28.0686 17.8164 27.2346 16.9769 26.2059 16.9769C25.1771 16.9769 24.3431 17.8164 24.3431 18.8519C24.3431 19.8875 25.1771 20.7269 26.2059 20.7269Z" fill="#E73A1E"/>
<path d="M26.2059 20.7269C27.2346 20.7269 28.0686 19.8875 28.0686 18.8519C28.0686 17.8164 27.2346 16.9769 26.2059 16.9769C25.1771 16.9769 24.3431 17.8164 24.3431 18.8519C24.3431 19.8875 25.1771 20.7269 26.2059 20.7269Z" stroke="#E73A1E"/>
<path d="M12.7941 20.7269C13.8229 20.7269 14.6569 19.8875 14.6569 18.8519C14.6569 17.8164 13.8229 16.9769 12.7941 16.9769C11.7654 16.9769 10.9314 17.8164 10.9314 18.8519C10.9314 19.8875 11.7654 20.7269 12.7941 20.7269Z" fill="#E73A1E" stroke="#E73A1E"/>
<path d="M24.3431 18.4769L14.6569 18.4769L14.6569 19.2269L24.3431 19.2269L24.3431 18.4769Z" fill="#E73A1E"/>
<path d="M17.7602 12.0687C17.2458 11.1719 16.1066 10.8647 15.2157 11.3825C14.3247 11.9002 14.0195 13.0469 14.5339 13.9437C15.0482 14.8405 16.1875 15.1478 17.0784 14.63C17.9694 14.1123 18.2746 12.9655 17.7602 12.0687Z" fill="#E73A1E" stroke="#E73A1E"/>
<path d="M24.4661 23.7601C23.9517 22.8633 22.8125 22.5561 21.9216 23.0738C21.0306 23.5916 20.7254 24.7383 21.2398 25.6351C21.7542 26.5319 22.8934 26.8392 23.7843 26.3214C24.6753 25.8036 24.9805 24.6569 24.4661 23.7601Z" fill="#E73A1E"/>
<path d="M24.4661 23.7601C23.9517 22.8633 22.8125 22.5561 21.9216 23.0738C21.0306 23.5916 20.7254 24.7383 21.2398 25.6351C21.7542 26.5319 22.8934 26.8392 23.7843 26.3214C24.6753 25.8036 24.9805 24.6569 24.4661 23.7601Z" fill="#E73A1E"/>
<path d="M24.4661 23.7601C23.9517 22.8633 22.8125 22.5561 21.9216 23.0738C21.0306 23.5916 20.7254 24.7383 21.2398 25.6351C21.7542 26.5319 22.8934 26.8392 23.7843 26.3214C24.6753 25.8036 24.9805 24.6569 24.4661 23.7601Z" stroke="#E73A1E"/>
<path d="M16.8921 14.7269L21.7353 23.1707L22.3805 22.7957L17.5374 14.3519L16.8921 14.7269Z" fill="#E73A1E"/>
<path d="M24.4661 13.9437C24.9805 13.0469 24.6753 11.9002 23.7843 11.3824C22.8934 10.8647 21.7542 11.1719 21.2398 12.0687C20.7254 12.9655 21.0306 14.1122 21.9216 14.63C22.8125 15.1478 23.9517 14.8405 24.4661 13.9437Z" fill="#E73A1E"/>
<path d="M24.4661 13.9437C24.9805 13.0469 24.6753 11.9002 23.7843 11.3824C22.8934 10.8647 21.7542 11.1719 21.2398 12.0687C20.7254 12.9655 21.0306 14.1122 21.9216 14.63C22.8125 15.1478 23.9517 14.8405 24.4661 13.9437Z" fill="#E73A1E"/>
<path d="M24.4661 13.9437C24.9805 13.0469 24.6753 11.9002 23.7843 11.3824C22.8934 10.8647 21.7542 11.1719 21.2398 12.0687C20.7254 12.9655 21.0306 14.1122 21.9216 14.63C22.8125 15.1478 23.9517 14.8405 24.4661 13.9437Z" fill="#E73A1E" stroke="#E73A1E"/>
<path d="M17.7602 25.6351C18.2746 24.7382 17.9694 23.5915 17.0784 23.0738C16.1875 22.556 15.0482 22.8632 14.5339 23.7601C14.0195 24.6569 14.3247 25.8036 15.2157 26.3213C16.1066 26.8391 17.2458 26.5319 17.7602 25.6351Z" fill="#E73A1E"/>
<path d="M17.7602 25.6351C18.2746 24.7382 17.9694 23.5915 17.0784 23.0738C16.1875 22.556 15.0482 22.8632 14.5339 23.7601C14.0195 24.6569 14.3247 25.8036 15.2157 26.3213C16.1066 26.8391 17.2458 26.5319 17.7602 25.6351Z" fill="#E73A1E"/>
<path d="M17.7602 25.6351C18.2746 24.7382 17.9694 23.5915 17.0784 23.0738C16.1875 22.556 15.0482 22.8632 14.5339 23.7601C14.0195 24.6569 14.3247 25.8036 15.2157 26.3213C16.1066 26.8391 17.2458 26.5319 17.7602 25.6351Z" stroke="#E73A1E"/>
<path d="M21.7353 14.3519L16.8921 22.7956L17.5374 23.1706L22.3806 14.7269L21.7353 14.3519Z" fill="#E73A1E"/>
<path d="M19.4999 20.7269C20.5287 20.7269 21.3627 19.8875 21.3627 18.8519C21.3627 17.8164 20.5287 16.9769 19.4999 16.9769C18.4711 16.9769 17.6372 17.8164 17.6372 18.8519C17.6372 19.8875 18.4711 20.7269 19.4999 20.7269Z" fill="#E73A1E" stroke="#E73A1E"/>
</g>
<defs>
<clipPath id="clip0_13_263">
<rect width="19" height="18" fill="white" transform="translate(10 10)"/>
</clipPath>
</defs>
</svg>
